<?xml version="1.0" standalone="no"?>
<!DOCTYPE svg PUBLIC "-//W3C//DTD SVG 20010904//EN"
 "http://www.w3.org/TR/2001/REC-SVG-20010904/DTD/svg10.dtd">
<svg version="1.0" xmlns="http://www.w3.org/2000/svg"
 width="50.000000pt" height="50.000000pt" viewBox="0 0 50.000000 50.000000"
 preserveAspectRatio="xMidYMid meet">
<metadata>
Created by potrace 1.16, written by Peter Selinger 2001-2019
</metadata>
<g transform="translate(0.000000,50.000000) scale(0.100000,-0.100000)"
fill="#000000" stroke="none">
<path d="M109 408 c-9 -7 -21 -38 -28 -68 -8 -30 -27 -94 -43 -143 -17 -48
-27 -94 -24 -103 4 -11 17 -14 48 -12 l43 3 5 49 c10 95 70 87 70 -10 l0 -54
45 0 c25 0 45 4 45 9 0 5 9 12 19 16 11 3 26 21 36 40 21 46 32 44 40 -5 5
-30 11 -40 25 -40 14 0 21 10 26 35 10 56 24 51 24 -8 0 -48 3 -55 22 -61 13
-3 27 -1 31 3 10 10 5 306 -5 316 -18 19 -45 -8 -57 -58 -16 -61 -28 -87 -41
-87 -6 0 -10 13 -10 29 0 16 -5 52 -12 80 -9 38 -16 51 -30 51 -10 0 -18 -3
-18 -7 -2 -28 -39 -193 -47 -207 -8 -14 -12 -2 -17 55 -9 92 -23 149 -43 172
-19 20 -82 23 -104 5z"/>
</g>
</svg>
